<?xml version="1.0" standalone="no"?>
<!DOCTYPE svg PUBLIC "-//W3C//DTD SVG 20010904//EN"
 "http://www.w3.org/TR/2001/REC-SVG-20010904/DTD/svg10.dtd">
<svg version="1.0" xmlns="http://www.w3.org/2000/svg"
 width="360.000000pt" height="360.000000pt" viewBox="0 0 360.000000 360.000000"
 preserveAspectRatio="xMidYMid meet">

<g transform="translate(0.000000,360.000000) scale(0.100000,-0.100000)"
fill="#000000" stroke="none">
<path d="M1485 2300 l-309 -309 29 -31 c16 -16 34 -30 39 -30 6 0 132 122 280
270 149 149 273 270 276 270 3 0 83 -76 177 -170 l171 -170 68 0 68 0 -239
240 c-132 132 -242 240 -245 240 -3 0 -144 -139 -315 -310z"/>
<path d="M1140 2255 l-305 -305 312 -312 312 -312 31 29 c16 16 30 33 30 38 0
5 -121 129 -270 275 -148 146 -270 271 -270 277 0 7 123 134 272 283 l273 271
-30 31 c-16 16 -34 30 -39 30 -6 0 -148 -137 -316 -305z"/>
<path d="M1807 2232 l-27 -28 39 -38 c36 -36 41 -37 100 -35 33 1 61 4 61 6 0
9 -126 123 -136 123 -5 0 -22 -13 -37 -28z"/>
<path d="M1658 1993 c-10 -2 -18 -9 -18 -14 0 -11 30 -18 90 -21 l45 -3 0
-132 c0 -126 -1 -133 -24 -157 -56 -59 -163 -55 -201 7 -11 18 -20 40 -20 50
0 10 -8 17 -20 17 -46 0 -11 -86 50 -125 78 -49 177 -29 234 48 19 26 21 42
21 180 l0 152 -70 2 c-38 0 -78 -1 -87 -4z"/>
<path d="M2035 1983 c-99 -52 -138 -155 -100 -264 29 -82 98 -129 187 -129
137 0 235 132 199 268 -14 51 -64 110 -108 128 -44 19 -141 17 -178 -3z m183
-39 c62 -46 86 -175 46 -246 -42 -73 -152 -96 -229 -48 -51 32 -69 72 -69 153
0 75 15 104 75 145 28 20 44 23 92 20 36 -3 67 -12 85 -24z"/>
<path d="M2444 1985 c-3 -6 -3 -94 -2 -195 l3 -185 133 0 134 0 29 33 c40 45
40 94 -1 130 -35 31 -37 43 -11 66 29 26 35 69 17 105 -13 24 -28 34 -69 46
-59 16 -227 17 -233 0z m246 -47 c15 -16 20 -33 18 -58 -4 -48 -33 -61 -133
-58 l-80 3 -3 68 -3 67 90 0 c81 0 92 -2 111 -22z m-15 -162 c58 -25 72 -77
30 -116 -28 -26 -96 -37 -169 -26 l-46 7 0 68 c0 37 3 71 7 74 12 13 143 7
178 -7z"/>
<path d="M912 1627 c-12 -13 -22 -28 -22 -34 0 -13 597 -597 613 -600 7 -2
120 103 252 232 l240 234 -70 1 -69 0 -166 -165 c-96 -95 -174 -165 -185 -165
-11 0 -126 107 -281 260 -144 143 -268 260 -276 260 -8 0 -24 -10 -36 -23z"/>
<path d="M1968 1283 c-97 -98 -178 -183 -178 -189 0 -5 14 -23 30 -39 l31 -29
217 217 217 217 -69 0 -69 0 -179 -177z"/>
</g>
</svg>
